<mxfile host="app.diagrams.net" modified="2024-01-06T17:18:37.846Z" agent="Mozilla/5.0 (Windows NT 10.0; Win64; x64; rv:121.0) Gecko/20100101 Firefox/121.0" etag="ZfxBZ5fTRUM6elRTW6hK" version="22.1.17" type="device">
  <diagram name="PÃ¡gina-1" id="FHlqAFgWbLDdatN3k4EH">
    <mxGraphModel dx="2007" dy="1885" grid="1" gridSize="10" guides="1" tooltips="1" connect="1" arrows="1" fold="1" page="1" pageScale="1" pageWidth="827" pageHeight="1169" math="0" shadow="0">
      <root>
        <mxCell id="0" />
        <mxCell id="1" parent="0" />
        <mxCell id="Z6RdpMls2iOhhNtE3iPN-30" value="" style="rounded=0;whiteSpace=wrap;html=1;fillColor=#fad7ac;strokeColor=#b46504;fontStyle=1;fontSize=16;strokeWidth=4;" vertex="1" parent="1">
          <mxGeometry x="410" y="450" width="180" height="60" as="geometry" />
        </mxCell>
        <mxCell id="Z6RdpMls2iOhhNtE3iPN-28" value="" style="rounded=0;whiteSpace=wrap;html=1;fillColor=#fad7ac;strokeColor=#b46504;fontStyle=1;fontSize=16;strokeWidth=4;" vertex="1" parent="1">
          <mxGeometry x="400" y="140" width="180" height="60" as="geometry" />
        </mxCell>
        <mxCell id="Z6RdpMls2iOhhNtE3iPN-14" value="ARP TABLE" style="rounded=0;whiteSpace=wrap;html=1;fillColor=#fad7ac;strokeColor=#b46504;fontStyle=1;fontSize=16;strokeWidth=4;" vertex="1" parent="1">
          <mxGeometry x="460" y="165" width="180" height="60" as="geometry" />
        </mxCell>
        <mxCell id="Z6RdpMls2iOhhNtE3iPN-27" value="" style="rounded=0;whiteSpace=wrap;html=1;fillColor=#fad7ac;strokeColor=#b46504;fontStyle=1;fontSize=16;strokeWidth=4;" vertex="1" parent="1">
          <mxGeometry x="140" y="140" width="180" height="60" as="geometry" />
        </mxCell>
        <mxCell id="Z6RdpMls2iOhhNtE3iPN-1" value="" style="sketch=0;points=[[0.5,0,0],[1,0.5,0],[0.5,1,0],[0,0.5,0],[0.145,0.145,0],[0.8555,0.145,0],[0.855,0.8555,0],[0.145,0.855,0]];verticalLabelPosition=bottom;html=1;verticalAlign=top;aspect=fixed;align=center;pointerEvents=1;shape=mxgraph.cisco19.rect;prIcon=router;fillColor=#b1ddf0;strokeColor=#10739e;" vertex="1" parent="1">
          <mxGeometry x="304" y="90" width="110" height="110" as="geometry" />
        </mxCell>
        <mxCell id="Z6RdpMls2iOhhNtE3iPN-12" value="" style="rounded=0;whiteSpace=wrap;html=1;fillColor=#fad7ac;strokeColor=#b46504;fontStyle=1;fontSize=16;strokeWidth=4;" vertex="1" parent="1">
          <mxGeometry x="140" y="450" width="180" height="60" as="geometry" />
        </mxCell>
        <mxCell id="Z6RdpMls2iOhhNtE3iPN-13" value="ROUTING TABLE" style="rounded=0;whiteSpace=wrap;html=1;fillColor=#fad7ac;strokeColor=#b46504;fontStyle=1;fontSize=16;strokeWidth=4;" vertex="1" parent="1">
          <mxGeometry x="80" y="165" width="180" height="60" as="geometry" />
        </mxCell>
        <mxCell id="Z6RdpMls2iOhhNtE3iPN-15" value="ADJACENCY TABLE" style="rounded=0;whiteSpace=wrap;html=1;fillColor=#fad7ac;strokeColor=#b46504;fontStyle=1;fontSize=16;strokeWidth=4;" vertex="1" parent="1">
          <mxGeometry x="450" y="425" width="180" height="60" as="geometry" />
        </mxCell>
        <mxCell id="Z6RdpMls2iOhhNtE3iPN-19" value="CEF" style="text;html=1;strokeColor=none;fillColor=none;align=center;verticalAlign=middle;whiteSpace=wrap;rounded=0;strokeWidth=1;fontSize=16;fontStyle=1" vertex="1" parent="1">
          <mxGeometry x="289" y="-30" width="140" height="30" as="geometry" />
        </mxCell>
        <mxCell id="Z6RdpMls2iOhhNtE3iPN-20" value="L3 ENGINE " style="text;html=1;strokeColor=none;fillColor=none;align=center;verticalAlign=middle;whiteSpace=wrap;rounded=0;strokeWidth=1;fontSize=16;fontStyle=1" vertex="1" parent="1">
          <mxGeometry x="244" y="50" width="230" height="30" as="geometry" />
        </mxCell>
        <mxCell id="Z6RdpMls2iOhhNtE3iPN-24" value="LAYER 3 FORWARDING" style="text;html=1;strokeColor=none;fillColor=none;align=center;verticalAlign=middle;whiteSpace=wrap;rounded=0;strokeWidth=1;fontSize=16;fontStyle=1" vertex="1" parent="1">
          <mxGeometry x="240" y="550" width="230" height="30" as="geometry" />
        </mxCell>
        <mxCell id="Z6RdpMls2iOhhNtE3iPN-26" value="" style="sketch=0;points=[[0.015,0.015,0],[0.985,0.015,0],[0.985,0.985,0],[0.015,0.985,0],[0.25,0,0],[0.5,0,0],[0.75,0,0],[1,0.25,0],[1,0.5,0],[1,0.75,0],[0.75,1,0],[0.5,1,0],[0.25,1,0],[0,0.75,0],[0,0.5,0],[0,0.25,0]];verticalLabelPosition=bottom;html=1;verticalAlign=top;aspect=fixed;align=center;pointerEvents=1;shape=mxgraph.cisco19.rect;prIcon=l3_switch;fillColor=#b1ddf0;strokeColor=#10739e;strokeWidth=4;" vertex="1" parent="1">
          <mxGeometry x="304" y="425" width="110" height="110" as="geometry" />
        </mxCell>
        <mxCell id="Z6RdpMls2iOhhNtE3iPN-29" value="FIB TABLE" style="rounded=0;whiteSpace=wrap;html=1;fillColor=#fad7ac;strokeColor=#b46504;fontStyle=1;fontSize=16;strokeWidth=4;" vertex="1" parent="1">
          <mxGeometry x="90" y="425" width="180" height="60" as="geometry" />
        </mxCell>
        <mxCell id="Z6RdpMls2iOhhNtE3iPN-31" value="INGRESS PACKET" style="rounded=0;whiteSpace=wrap;html=1;fillColor=#fad7ac;strokeColor=#b46504;fontStyle=1;fontSize=16;strokeWidth=4;" vertex="1" parent="1">
          <mxGeometry x="-90" y="700" width="180" height="60" as="geometry" />
        </mxCell>
        <mxCell id="Z6RdpMls2iOhhNtE3iPN-32" value="EGRESS PACKET" style="rounded=0;whiteSpace=wrap;html=1;fillColor=#fad7ac;strokeColor=#b46504;fontStyle=1;fontSize=16;strokeWidth=4;" vertex="1" parent="1">
          <mxGeometry x="630" y="700" width="180" height="60" as="geometry" />
        </mxCell>
        <mxCell id="Z6RdpMls2iOhhNtE3iPN-34" value="" style="endArrow=classic;html=1;rounded=0;endSize=6;fontSize=13;strokeWidth=4;dashed=1;" edge="1" parent="1">
          <mxGeometry width="50" height="50" relative="1" as="geometry">
            <mxPoint y="700" as="sourcePoint" />
            <mxPoint x="310" y="115" as="targetPoint" />
            <Array as="points">
              <mxPoint y="115" />
            </Array>
          </mxGeometry>
        </mxCell>
        <mxCell id="Z6RdpMls2iOhhNtE3iPN-37" value="" style="curved=1;endArrow=none;html=1;rounded=0;dashed=1;strokeWidth=4;endFill=0;startArrow=classic;startFill=1;" edge="1" parent="1">
          <mxGeometry width="50" height="50" relative="1" as="geometry">
            <mxPoint x="10" y="695" as="sourcePoint" />
            <mxPoint x="130" y="510" as="targetPoint" />
            <Array as="points">
              <mxPoint x="80" y="670" />
              <mxPoint x="10" y="510" />
            </Array>
          </mxGeometry>
        </mxCell>
        <mxCell id="Z6RdpMls2iOhhNtE3iPN-38" value="" style="endArrow=none;html=1;rounded=0;strokeWidth=4;dashed=1;endFill=0;startArrow=classic;startFill=1;" edge="1" parent="1">
          <mxGeometry width="50" height="50" relative="1" as="geometry">
            <mxPoint x="729.5" y="700" as="sourcePoint" />
            <mxPoint x="410" y="120" as="targetPoint" />
            <Array as="points">
              <mxPoint x="730" y="120" />
            </Array>
          </mxGeometry>
        </mxCell>
        <mxCell id="Z6RdpMls2iOhhNtE3iPN-39" value="" style="curved=1;endArrow=none;html=1;rounded=0;strokeWidth=4;dashed=1;startArrow=classicThin;startFill=1;endFill=0;" edge="1" parent="1">
          <mxGeometry width="50" height="50" relative="1" as="geometry">
            <mxPoint x="720" y="700" as="sourcePoint" />
            <mxPoint x="600" y="510" as="targetPoint" />
            <Array as="points">
              <mxPoint x="680" y="680" />
              <mxPoint x="630" y="640" />
              <mxPoint x="690" y="590" />
              <mxPoint x="710" y="540" />
              <mxPoint x="660" y="520" />
            </Array>
          </mxGeometry>
        </mxCell>
        <mxCell id="Z6RdpMls2iOhhNtE3iPN-40" value="CEF PUNT TO L3 ENGINE" style="text;html=1;strokeColor=none;fillColor=none;align=center;verticalAlign=middle;whiteSpace=wrap;rounded=0;fontSize=16;fontStyle=1;rotation=-90;" vertex="1" parent="1">
          <mxGeometry x="-160" y="360" width="210" height="30" as="geometry" />
        </mxCell>
        <mxCell id="Z6RdpMls2iOhhNtE3iPN-41" value="NORMAL CEF TO L3 ENGINE" style="text;html=1;strokeColor=none;fillColor=none;align=center;verticalAlign=middle;whiteSpace=wrap;rounded=0;fontSize=16;fontStyle=1;rotation=0;" vertex="1" parent="1">
          <mxGeometry x="50" y="560" width="100" height="30" as="geometry" />
        </mxCell>
        <mxCell id="Z6RdpMls2iOhhNtE3iPN-42" value="REWRITE ENGINE" style="text;html=1;strokeColor=none;fillColor=none;align=center;verticalAlign=middle;whiteSpace=wrap;rounded=0;fontSize=16;fontStyle=1;rotation=0;" vertex="1" parent="1">
          <mxGeometry x="540" y="560" width="100" height="30" as="geometry" />
        </mxCell>
        <mxCell id="Z6RdpMls2iOhhNtE3iPN-51" value="&lt;div&gt;--- ---- ---&lt;/div&gt;&lt;div&gt;--- --- --- &lt;br&gt;&lt;/div&gt;&lt;div&gt;--- --- ---&lt;br&gt;&lt;/div&gt;" style="shape=note;size=20;whiteSpace=wrap;html=1;fontStyle=1;fillColor=#d0cee2;strokeColor=#56517e;strokeWidth=4;" vertex="1" parent="1">
          <mxGeometry x="640" y="545" width="70" height="60" as="geometry" />
        </mxCell>
        <mxCell id="Z6RdpMls2iOhhNtE3iPN-52" value="" style="endArrow=classic;html=1;rounded=0;strokeWidth=4;" edge="1" parent="1">
          <mxGeometry width="50" height="50" relative="1" as="geometry">
            <mxPoint x="-168" y="726" as="sourcePoint" />
            <mxPoint x="-98" y="726" as="targetPoint" />
          </mxGeometry>
        </mxCell>
        <mxCell id="Z6RdpMls2iOhhNtE3iPN-53" value="" style="endArrow=classic;html=1;rounded=0;strokeWidth=4;" edge="1" parent="1">
          <mxGeometry width="50" height="50" relative="1" as="geometry">
            <mxPoint x="815" y="728" as="sourcePoint" />
            <mxPoint x="885" y="728" as="targetPoint" />
          </mxGeometry>
        </mxCell>
      </root>
    </mxGraphModel>
  </diagram>
</mxfile>
